<svg width="38" height="31" viewBox="0 0 38 31" fill="none" xmlns="http://www.w3.org/2000/svg">
<path d="M14.6115 12.5807H0V18.4236H14.6115V12.5807Z" fill="#FF0380"/>
<path d="M17.5456 24.2749V30.122H5.85134C5.08313 30.1226 4.32234 29.9717 3.61244 29.6782C2.90255 29.3846 2.25747 28.9539 1.71407 28.4109C1.17067 27.8679 0.739597 27.2232 0.445488 26.5135C0.15138 25.8038 -1.99088e-07 25.0431 0 24.2749H17.5456Z" fill="#FF0380"/>
<path d="M38 0.873779V6.72511H29.1598C28.4313 6.74145 27.7346 7.02715 27.2044 7.52705C26.6742 8.02694 26.348 8.70557 26.2889 9.43188C26.2889 9.50345 26.2889 9.57501 26.2889 9.64657C26.2889 9.71814 26.2889 9.79391 26.2889 9.86547V18.4236C24.7429 18.4191 23.2619 17.8013 22.1712 16.7058C21.0804 15.6103 20.469 14.1266 20.4712 12.5807V6.73353C20.469 5.96588 20.6181 5.20531 20.9099 4.49529C21.2018 3.78527 21.6307 3.13973 22.1721 2.59554C22.7136 2.05136 23.357 1.6192 24.0655 1.32378C24.774 1.02835 25.5338 0.875435 26.3015 0.873779L38 0.873779Z" fill="#FF0380"/>
<path d="M20.4713 0.873781C19.4706 1.45653 18.6645 2.32215 18.1544 3.36177C17.6443 4.4014 17.453 5.56863 17.6045 6.7167H0V6.68302C0.00223145 5.14081 0.616724 3.66259 1.70842 2.57327C2.80011 1.48394 4.27966 0.872663 5.82187 0.873781H20.4713Z" fill="#FF0380"/>
<path d="M26.3016 9.44031V9.86127C26.3016 9.7897 26.3016 9.71814 26.3016 9.64237C26.3016 9.5666 26.2973 9.51187 26.3016 9.44031Z" fill="#FF0380"/>
<path d="M38.0001 18.4236V24.2749C38.0006 25.0431 37.8498 25.8039 37.5562 26.5138C37.2626 27.2237 36.832 27.8688 36.289 28.4122C35.746 28.9556 35.1012 29.3867 34.3915 29.6808C33.6818 29.9749 32.9211 30.1263 32.1529 30.1263H20.4713V24.2749H29.3115C30.0716 24.2434 30.7901 23.9191 31.3166 23.3699C31.8431 22.8206 32.1367 22.089 32.1361 21.3282V12.5807C32.9049 12.579 33.6664 12.7289 34.3772 13.0216C35.0881 13.3144 35.7342 13.7444 36.2788 14.287C36.8234 14.8297 37.2557 15.4743 37.551 16.184C37.8464 16.8938 37.999 17.6548 38.0001 18.4236Z" fill="#FF0380"/>
</svg>
